<?xml version="1.0" encoding="UTF-8"?>
<svg version="1.1" xmlns="http://www.w3.org/2000/svg" width="128" height="128">
<path d="M0 0 C24.42 0 48.84 0 74 0 C74 33.33 74 66.66 74 101 C49.58 101 25.16 101 0 101 C0 67.67 0 34.34 0 0 Z M13.5625 23.8125 C11.82010102 27.36699393 11.35113593 29.10681557 12 33 C13.92841685 36.93397036 15.47599853 38.68761451 19.25 40.9375 C23.85684607 42.24277305 26.34527677 42.00852337 31 41 C31.99 40.34 32.98 39.68 34 39 C33.34 37.68 32.68 36.36 32 35 C29.81160732 35 27.62286794 35.07248063 25.4375 35.1875 C24.303125 35.125625 23.16875 35.06375 22 35 C19.5705484 31.3558226 19.83820425 29.28758728 20 25 C24 25 28 25 32 25 C32.66 23.68 33.32 22.36 34 21 C26.3375632 16.72329109 19.71321468 16.71552152 13.5625 23.8125 Z M36 19 C37.31109909 22.2922264 38.62411682 25.58368421 39.9375 28.875 C40.31068359 29.81214844 40.68386719 30.74929687 41.06835938 31.71484375 C41.42607422 32.61074219 41.78378906 33.50664063 42.15234375 34.4296875 C42.48226318 35.25710449 42.81218262 36.08452148 43.15209961 36.93701172 C43.97542634 39.01220506 43.97542634 39.01220506 45 41 C47.64 41 50.28 41 53 41 C54.50290811 37.52208234 56.00183816 34.04246452 57.5 30.5625 C57.92925781 29.56927734 58.35851562 28.57605469 58.80078125 27.55273438 C59.20683594 26.60849609 59.61289063 25.66425781 60.03125 24.69140625 C60.40830078 23.81685791 60.78535156 22.94230957 61.17382812 22.04125977 C62.06252872 20.21252631 62.06252872 20.21252631 62 19 C59.69 19 57.38 19 55 19 C54.66226563 19.85464844 54.32453125 20.70929687 53.9765625 21.58984375 C53.53054687 22.69457031 53.08453125 23.79929687 52.625 24.9375 C52.18414062 26.03964844 51.74328125 27.14179687 51.2890625 28.27734375 C50 31 50 31 48 32 C47.896875 31.34 47.79375 30.68 47.6875 30 C46.80786436 26.16158991 45.43030104 22.66903309 44 19 C41.36 19 38.72 19 36 19 Z M13 51 C13 53.31 13 55.62 13 58 C28.84 58 44.68 58 61 58 C61 55.69 61 53.38 61 51 C45.16 51 29.32 51 13 51 Z M13 65 C13 66.98 13 68.96 13 71 C28.84 71 44.68 71 61 71 C61 69.02 61 67.04 61 65 C45.16 65 29.32 65 13 65 Z M13 78 C13 80.31 13 82.62 13 85 C28.84 85 44.68 85 61 85 C61 82.69 61 80.38 61 78 C45.16 78 29.32 78 13 78 Z " fill="#000000" transform="translate(24,27)"/>
<path d="M0 0 C0.495 3.96 0.495 3.96 1 8 C1.5669458 8.0501123 2.1338916 8.10022461 2.71801758 8.15185547 C13.08753612 9.07206025 23.45522887 10.01241707 33.8125 11.0625 C35.02933472 11.18117432 35.02933472 11.18117432 36.27075195 11.30224609 C41.88357653 11.88357653 41.88357653 11.88357653 43 13 C42.8083733 25.28197274 41.04642752 37.61199931 39.71484375 49.80859375 C39.49180375 51.87220934 39.26903529 53.9358543 39.04652405 55.99952698 C38.46561789 61.38039119 37.88107119 66.76085362 37.29571533 72.14123535 C36.69685888 77.65185756 36.10151549 83.16285923 35.50585938 88.67382812 C34.34064018 99.4495889 33.17156722 110.22492768 32 121 C28.7 120.67 25.4 120.34 22 120 C22 87 22 54 22 20 C-6.71 20 -35.42 20 -65 20 C-65 50.69 -65 81.38 -65 113 C-67.95664519 114.4783226 -70.74229737 114.06032783 -74 114 C-74.91686974 101.26500784 -75.82989042 88.52974605 -76.73806 75.79413033 C-77.1599228 69.87986969 -77.58308816 63.96570838 -78.00927734 58.05175781 C-78.42087143 52.33965484 -78.82898246 46.62731253 -79.23472595 40.91479111 C-79.38977711 38.74033691 -79.54606237 36.56597033 -79.70362854 34.39169693 C-79.92487271 31.33573885 -80.14164277 28.27949271 -80.35742188 25.22314453 C-80.42287704 24.33337418 -80.48833221 23.44360382 -80.55577087 22.52687073 C-80.9627736 16.6756977 -81.07247135 10.86456845 -81 5 C-72.65425474 4.3412076 -64.30804145 3.6888314 -55.96118832 3.04424286 C-52.08382419 2.74461793 -48.20664527 2.44293207 -44.32983398 2.13623047 C-40.57599791 1.83933906 -36.82174913 1.54826036 -33.0671711 1.26091003 C-31.64758326 1.15129466 -30.22814508 1.03971961 -28.80888176 0.92597961 C-19.18229376 0.1562509 -9.65350029 -0.13636034 0 0 Z " fill="#000000" transform="translate(83,0)"/>
</svg>
